<svg xmlns="http://www.w3.org/2000/svg" width="1920" height="1080"><path d="M47,-239L155,-216L753,-203Z" fill="#ffdacb" stroke="#ffdacb" stroke-width="1.51"/><path d="M753,-203L1084,-206L1183,-210Z" fill="#ffad95" stroke="#ffad95" stroke-width="1.51"/><path d="M47,-239L753,-203L1183,-210Z" fill="#ffc3ae" stroke="#ffc3ae" stroke-width="1.51"/><path d="M677,1273L401,1285L1239,1297Z" fill="#b64837" stroke="#b64837" stroke-width="1.51"/><path d="M827,1262L677,1273L1239,1297Z" fill="#b63e2e" stroke="#b63e2e" stroke-width="1.51"/><path d="M47,-239L1183,-210L1642,-210Z" fill="#ffb199" stroke="#ffb199" stroke-width="1.51"/><path d="M1183,-210L1519,-197L1642,-210Z" fill="#f79581" stroke="#f79581" stroke-width="1.51"/><path d="M1731,1263L1499,1242L1826,1303Z" fill="#970b15" stroke="#970b15" stroke-width="1.51"/><path d="M1499,1242L1239,1297L1826,1303Z" fill="#9f0e17" stroke="#9f0e17" stroke-width="1.51"/><path d="M1937,534L2005,624L2067,430Z" fill="#bd3d2d" stroke="#bd3d2d" stroke-width="1.51"/><path d="M2067,430L2005,624L2079,769Z" fill="#b53226" stroke="#b53226" stroke-width="1.51"/><path d="M1979,30L2002,104L2088,-47Z" fill="#c27261" stroke="#c27261" stroke-width="1.51"/><path d="M2030,-198L1981,-126L2088,-47Z" fill="#c37c6f" stroke="#c37c6f" stroke-width="1.51"/><path d="M1999,1166L2029,1168L2095,970Z" fill="#910913" stroke="#910913" stroke-width="1.51"/><path d="M1943,938L1999,1166L2095,970Z" fill="#9b0c15" stroke="#9b0c15" stroke-width="1.51"/><path d="M2068,847L1978,857L2095,970Z" fill="#a41118" stroke="#a41118" stroke-width="1.51"/><path d="M1978,857L1943,938L2095,970Z" fill="#a60f17" stroke="#a60f17" stroke-width="1.51"/><path d="M2029,1168L2051,1276L2095,970Z" fill="#8b0713" stroke="#8b0713" stroke-width="1.51"/><path d="M2079,769L2068,847L2095,970Z" fill="#a31418" stroke="#a31418" stroke-width="1.51"/><path d="M1932,313L2040,329L2106,257Z" fill="#bc5644" stroke="#bc5644" stroke-width="1.51"/><path d="M2002,104L1932,313L2106,257Z" fill="#bf5f4c" stroke="#bf5f4c" stroke-width="1.51"/><path d="M2088,-47L2002,104L2106,257Z" fill="#bb6958" stroke="#bb6958" stroke-width="1.51"/><path d="M2040,329L2067,430L2106,257Z" fill="#b7503e" stroke="#b7503e" stroke-width="1.51"/><path d="M2067,430L2079,769L2106,257Z" fill="#b44030" stroke="#b44030" stroke-width="1.51"/><path d="M2079,769L2095,970L2106,257Z" fill="#af2922" stroke="#af2922" stroke-width="1.51"/><path d="M949,1257L827,1262L1239,1297Z" fill="#b63729" stroke="#b63729" stroke-width="1.51"/><path d="M2005,624L1939,658L2079,769Z" fill="#b72922" stroke="#b72922" stroke-width="1.51"/><path d="M1943,938L1859,1034L1999,1166Z" fill="#a20e16" stroke="#a20e16" stroke-width="1.51"/><path d="M1876,252L1932,313L2002,104Z" fill="#c8624d" stroke="#c8624d" stroke-width="1.51"/><path d="M1939,658L1917,769L2079,769Z" fill="#b9231f" stroke="#b9231f" stroke-width="1.51"/><path d="M1981,-126L1932,-40L2088,-47Z" fill="#c67b6c" stroke="#c67b6c" stroke-width="1.51"/><path d="M1932,-40L1979,30L2088,-47Z" fill="#c57767" stroke="#c57767" stroke-width="1.51"/><path d="M1642,-210L1796,-112L2030,-198Z" fill="#dd8877" stroke="#dd8877" stroke-width="1.51"/><path d="M1929,1228L1826,1303L2051,1276Z" fill="#830612" stroke="#830612" stroke-width="1.51"/><path d="M1978,857L2068,847L2079,769Z" fill="#aa191a" stroke="#aa191a" stroke-width="1.51"/><path d="M1917,769L1978,857L2079,769Z" fill="#b21c1c" stroke="#b21c1c" stroke-width="1.51"/><path d="M2029,1168L1999,1166L2051,1276Z" fill="#830512" stroke="#830512" stroke-width="1.51"/><path d="M2040,329L1932,313L2067,430Z" fill="#bd503d" stroke="#bd503d" stroke-width="1.51"/><path d="M1932,313L1937,534L2067,430Z" fill="#c04a37" stroke="#c04a37" stroke-width="1.51"/><path d="M1999,1166L1929,1228L2051,1276Z" fill="#840511" stroke="#840511" stroke-width="1.51"/><path d="M1853,218L1876,252L2002,104Z" fill="#cc6651" stroke="#cc6651" stroke-width="1.51"/><path d="M1796,-112L1981,-126L2030,-198Z" fill="#d08272" stroke="#d08272" stroke-width="1.51"/><path d="M1859,1034L1853,1170L1999,1166Z" fill="#9e0d14" stroke="#9e0d14" stroke-width="1.51"/><path d="M1937,534L1939,658L2005,624Z" fill="#bf3628" stroke="#bf3628" stroke-width="1.51"/><path d="M1979,30L1835,48L2002,104Z" fill="#cb725f" stroke="#cb725f" stroke-width="1.51"/><path d="M1835,48L1853,218L2002,104Z" fill="#ce6e59" stroke="#ce6e59" stroke-width="1.51"/><path d="M1932,313L1817,314L1937,534Z" fill="#ca523c" stroke="#ca523c" stroke-width="1.51"/><path d="M1853,1170L1929,1228L1999,1166Z" fill="#900913" stroke="#900913" stroke-width="1.51"/><path d="M1817,314L1790,527L1937,534Z" fill="#d04b37" stroke="#d04b37" stroke-width="1.51"/><path d="M1796,-112L1932,-40L1981,-126Z" fill="#d28170" stroke="#d28170" stroke-width="1.51"/><path d="M1932,-40L1835,48L1979,30Z" fill="#cf7865" stroke="#cf7865" stroke-width="1.51"/><path d="M1917,769L1943,938L1978,857Z" fill="#b2181b" stroke="#b2181b" stroke-width="1.51"/><path d="M1183,-210L1340,-180L1519,-197Z" fill="#fc9984" stroke="#fc9984" stroke-width="1.51"/><path d="M1831,750L1761,884L1917,769Z" fill="#c4201e" stroke="#c4201e" stroke-width="1.51"/><path d="M1831,750L1917,769L1939,658Z" fill="#c32620" stroke="#c32620" stroke-width="1.51"/><path d="M1937,534L1790,527L1939,658Z" fill="#c93c2c" stroke="#c93c2c" stroke-width="1.51"/><path d="M1790,527L1778,657L1939,658Z" fill="#cd3829" stroke="#cd3829" stroke-width="1.51"/><path d="M1917,769L1761,884L1943,938Z" fill="#ba1a1b" stroke="#ba1a1b" stroke-width="1.51"/><path d="M1761,884L1859,1034L1943,938Z" fill="#b41218" stroke="#b41218" stroke-width="1.51"/><path d="M1778,657L1831,750L1939,658Z" fill="#c92e24" stroke="#c92e24" stroke-width="1.51"/><path d="M1796,-112L1784,-81L1932,-40Z" fill="#da8370" stroke="#da8370" stroke-width="1.51"/><path d="M1876,252L1817,314L1932,313Z" fill="#ce5d46" stroke="#ce5d46" stroke-width="1.51"/><path d="M1784,-81L1835,48L1932,-40Z" fill="#d77e6b" stroke="#d77e6b" stroke-width="1.51"/><path d="M1853,1170L1826,1303L1929,1228Z" fill="#900913" stroke="#900913" stroke-width="1.51"/><path d="M1707,467L1790,527L1817,314Z" fill="#d54f3a" stroke="#d54f3a" stroke-width="1.51"/><path d="M1835,48L1736,161L1853,218Z" fill="#d76f59" stroke="#d76f59" stroke-width="1.51"/><path d="M1731,1263L1826,1303L1853,1170Z" fill="#930914" stroke="#930914" stroke-width="1.51"/><path d="M1708,1026L1674,1104L1853,1170Z" fill="#ad1116" stroke="#ad1116" stroke-width="1.51"/><path d="M1708,1026L1853,1170L1859,1034Z" fill="#ab1016" stroke="#ab1016" stroke-width="1.51"/><path d="M1761,884L1708,1026L1859,1034Z" fill="#b71319" stroke="#b71319" stroke-width="1.51"/><path d="M1853,218L1817,314L1876,252Z" fill="#d2624b" stroke="#d2624b" stroke-width="1.51"/><path d="M1736,161L1817,314L1853,218Z" fill="#d6664f" stroke="#d6664f" stroke-width="1.51"/><path d="M1674,1104L1731,1263L1853,1170Z" fill="#a10e15" stroke="#a10e15" stroke-width="1.51"/><path d="M1736,161L1678,324L1817,314Z" fill="#d9644c" stroke="#d9644c" stroke-width="1.51"/><path d="M1678,324L1707,467L1817,314Z" fill="#d85841" stroke="#d85841" stroke-width="1.51"/><path d="M1718,881L1761,884L1831,750Z" fill="#c51e1d" stroke="#c51e1d" stroke-width="1.51"/><path d="M1678,697L1718,881L1831,750Z" fill="#cc2520" stroke="#cc2520" stroke-width="1.51"/><path d="M1784,-81L1620,105L1835,48Z" fill="#de7d67" stroke="#de7d67" stroke-width="1.51"/><path d="M1620,105L1736,161L1835,48Z" fill="#dd755e" stroke="#dd755e" stroke-width="1.51"/><path d="M1778,657L1678,697L1831,750Z" fill="#d02d24" stroke="#d02d24" stroke-width="1.51"/><path d="M1619,-91L1620,105L1784,-81Z" fill="#e4836e" stroke="#e4836e" stroke-width="1.51"/><path d="M1718,881L1708,1026L1761,884Z" fill="#bf151a" stroke="#bf151a" stroke-width="1.51"/><path d="M1664,654L1778,657L1790,527Z" fill="#d43a2b" stroke="#d43a2b" stroke-width="1.51"/><path d="M1707,467L1664,654L1790,527Z" fill="#d74330" stroke="#d74330" stroke-width="1.51"/><path d="M1619,-91L1784,-81L1796,-112Z" fill="#e18673" stroke="#e18673" stroke-width="1.51"/><path d="M1642,-210L1619,-91L1796,-112Z" fill="#e68a77" stroke="#e68a77" stroke-width="1.51"/><path d="M1664,654L1678,697L1778,657Z" fill="#d43327" stroke="#d43327" stroke-width="1.51"/><path d="M1580,475L1664,654L1707,467Z" fill="#dc4632" stroke="#dc4632" stroke-width="1.51"/><path d="M1678,697L1564,684L1718,881Z" fill="#d42822" stroke="#d42822" stroke-width="1.51"/><path d="M1534,931L1708,1026L1718,881Z" fill="#c2161b" stroke="#c2161b" stroke-width="1.51"/><path d="M1674,1104L1593,1107L1731,1263Z" fill="#aa1017" stroke="#aa1017" stroke-width="1.51"/><path d="M1593,1107L1499,1242L1731,1263Z" fill="#a70e16" stroke="#a70e16" stroke-width="1.51"/><path d="M1620,105L1678,324L1736,161Z" fill="#df6d55" stroke="#df6d55" stroke-width="1.51"/><path d="M1678,324L1562,379L1707,467Z" fill="#de5740" stroke="#de5740" stroke-width="1.51"/><path d="M1564,684L1534,931L1718,881Z" fill="#d0211f" stroke="#d0211f" stroke-width="1.51"/><path d="M1465,844L1534,931L1564,684Z" fill="#d62521" stroke="#d62521" stroke-width="1.51"/><path d="M1620,105L1495,173L1678,324Z" fill="#e46e56" stroke="#e46e56" stroke-width="1.51"/><path d="M1562,379L1580,475L1707,467Z" fill="#e0523c" stroke="#e0523c" stroke-width="1.51"/><path d="M1580,475L1593,663L1664,654Z" fill="#dd3f2e" stroke="#dd3f2e" stroke-width="1.51"/><path d="M1593,1107L1674,1104L1708,1026Z" fill="#b51218" stroke="#b51218" stroke-width="1.51"/><path d="M1534,931L1593,1107L1708,1026Z" fill="#bd151a" stroke="#bd151a" stroke-width="1.51"/><path d="M1619,-91L1493,-21L1620,105Z" fill="#eb836d" stroke="#eb836d" stroke-width="1.51"/><path d="M1495,173L1562,379L1678,324Z" fill="#e4644c" stroke="#e4644c" stroke-width="1.51"/><path d="M1664,654L1593,663L1678,697Z" fill="#d83428" stroke="#d83428" stroke-width="1.51"/><path d="M1593,663L1564,684L1678,697Z" fill="#da3327" stroke="#da3327" stroke-width="1.51"/><path d="M1493,-21L1487,57L1620,105Z" fill="#ec8069" stroke="#ec8069" stroke-width="1.51"/><path d="M1519,-197L1619,-91L1642,-210Z" fill="#ed8e7b" stroke="#ed8e7b" stroke-width="1.51"/><path d="M1437,472L1564,684L1580,475Z" fill="#e44733" stroke="#e44733" stroke-width="1.51"/><path d="M1580,475L1564,684L1593,663Z" fill="#df3e2e" stroke="#df3e2e" stroke-width="1.51"/><path d="M1534,931L1472,1108L1593,1107Z" fill="#c0171b" stroke="#c0171b" stroke-width="1.51"/><path d="M1519,-197L1443,-113L1619,-91Z" fill="#f18e7a" stroke="#f18e7a" stroke-width="1.51"/><path d="M1487,57L1495,173L1620,105Z" fill="#ea7961" stroke="#ea7961" stroke-width="1.51"/><path d="M1443,-113L1493,-21L1619,-91Z" fill="#f08b76" stroke="#f08b76" stroke-width="1.51"/><path d="M1495,173L1393,288L1562,379Z" fill="#eb694f" stroke="#eb694f" stroke-width="1.51"/><path d="M1437,472L1352,610L1564,684Z" fill="#e74632" stroke="#e74632" stroke-width="1.51"/><path d="M1472,1221L1499,1242L1593,1107Z" fill="#ae1318" stroke="#ae1318" stroke-width="1.51"/><path d="M1472,1108L1472,1221L1593,1107Z" fill="#b61519" stroke="#b61519" stroke-width="1.51"/><path d="M1465,844L1485,918L1534,931Z" fill="#d11f20" stroke="#d11f20" stroke-width="1.51"/><path d="M1485,918L1472,1108L1534,931Z" fill="#c81a1d" stroke="#c81a1d" stroke-width="1.51"/><path d="M1562,379L1437,472L1580,475Z" fill="#e5543d" stroke="#e5543d" stroke-width="1.51"/><path d="M1375,991L1472,1108L1485,918Z" fill="#c91d1e" stroke="#c91d1e" stroke-width="1.51"/><path d="M1359,753L1465,844L1564,684Z" fill="#df2d25" stroke="#df2d25" stroke-width="1.51"/><path d="M1352,610L1359,753L1564,684Z" fill="#e63a2b" stroke="#e63a2b" stroke-width="1.51"/><path d="M1393,288L1437,472L1562,379Z" fill="#ea5e45" stroke="#ea5e45" stroke-width="1.51"/><path d="M1472,1221L1239,1297L1499,1242Z" fill="#ab181a" stroke="#ab181a" stroke-width="1.51"/><path d="M1399,145L1405,155L1487,57Z" fill="#f07d64" stroke="#f07d64" stroke-width="1.51"/><path d="M1487,57L1405,155L1495,173Z" fill="#ee7b61" stroke="#ee7b61" stroke-width="1.51"/><path d="M1340,-180L1443,-113L1519,-197Z" fill="#f7947f" stroke="#f7947f" stroke-width="1.51"/><path d="M1375,5L1487,57L1493,-21Z" fill="#f2876f" stroke="#f2876f" stroke-width="1.51"/><path d="M1405,155L1393,288L1495,173Z" fill="#ef7459" stroke="#ef7459" stroke-width="1.51"/><path d="M1443,-113L1375,5L1493,-21Z" fill="#f48d76" stroke="#f48d76" stroke-width="1.51"/><path d="M1393,288L1303,399L1437,472Z" fill="#ef6146" stroke="#ef6146" stroke-width="1.51"/><path d="M1472,1108L1301,1165L1472,1221Z" fill="#b91b1c" stroke="#b91b1c" stroke-width="1.51"/><path d="M1375,5L1399,145L1487,57Z" fill="#f28269" stroke="#f28269" stroke-width="1.51"/><path d="M1465,844L1375,991L1485,918Z" fill="#d22120" stroke="#d22120" stroke-width="1.51"/><path d="M1375,991L1301,1165L1472,1108Z" fill="#c5201d" stroke="#c5201d" stroke-width="1.51"/><path d="M1301,1165L1239,1297L1472,1221Z" fill="#b31d1c" stroke="#b31d1c" stroke-width="1.51"/><path d="M1305,515L1352,610L1437,472Z" fill="#ee5039" stroke="#ee5039" stroke-width="1.51"/><path d="M1359,753L1272,794L1465,844Z" fill="#e23026" stroke="#e23026" stroke-width="1.51"/><path d="M1272,794L1261,935L1465,844Z" fill="#de2d25" stroke="#de2d25" stroke-width="1.51"/><path d="M1261,935L1375,991L1465,844Z" fill="#d62521" stroke="#d62521" stroke-width="1.51"/><path d="M1375,5L1321,86L1399,145Z" fill="#f5846a" stroke="#f5846a" stroke-width="1.51"/><path d="M1340,-180L1375,5L1443,-113Z" fill="#f8927b" stroke="#f8927b" stroke-width="1.51"/><path d="M1303,399L1305,515L1437,472Z" fill="#f05a40" stroke="#f05a40" stroke-width="1.51"/><path d="M1305,515L1296,569L1352,610Z" fill="#f14f37" stroke="#f14f37" stroke-width="1.51"/><path d="M1340,-180L1253,8L1375,5Z" fill="#fb937b" stroke="#fb937b" stroke-width="1.51"/><path d="M1399,145L1256,152L1405,155Z" fill="#f47d62" stroke="#f47d62" stroke-width="1.51"/><path d="M1256,152L1393,288L1405,155Z" fill="#f4785c" stroke="#f4785c" stroke-width="1.51"/><path d="M1243,821L1261,935L1272,794Z" fill="#e43127" stroke="#e43127" stroke-width="1.51"/><path d="M1219,1129L1301,1165L1375,991Z" fill="#ca2420" stroke="#ca2420" stroke-width="1.51"/><path d="M1321,86L1256,152L1399,145Z" fill="#f78166" stroke="#f78166" stroke-width="1.51"/><path d="M1209,989L1219,1129L1375,991Z" fill="#d12722" stroke="#d12722" stroke-width="1.51"/><path d="M1158,318L1303,399L1393,288Z" fill="#f56b4e" stroke="#f56b4e" stroke-width="1.51"/><path d="M1256,152L1158,318L1393,288Z" fill="#f87559" stroke="#f87559" stroke-width="1.51"/><path d="M1352,610L1182,694L1359,753Z" fill="#ee402f" stroke="#ee402f" stroke-width="1.51"/><path d="M1182,694L1272,794L1359,753Z" fill="#ed392b" stroke="#ed392b" stroke-width="1.51"/><path d="M1261,935L1209,989L1375,991Z" fill="#d72822" stroke="#d72822" stroke-width="1.51"/><path d="M1253,8L1321,86L1375,5Z" fill="#fa8a71" stroke="#fa8a71" stroke-width="1.51"/><path d="M1177,186L1158,318L1256,152Z" fill="#fa7e60" stroke="#fa7e60" stroke-width="1.51"/><path d="M1183,-210L1253,8L1340,-180Z" fill="#ff9982" stroke="#ff9982" stroke-width="1.51"/><path d="M1296,569L1182,694L1352,610Z" fill="#f14934" stroke="#f14934" stroke-width="1.51"/><path d="M1212,1191L1239,1297L1301,1165Z" fill="#ba221f" stroke="#ba221f" stroke-width="1.51"/><path d="M1183,-210L1138,-14L1253,8Z" fill="#ff9a81" stroke="#ff9a81" stroke-width="1.51"/><path d="M1189,579L1182,694L1296,569Z" fill="#f44e37" stroke="#f44e37" stroke-width="1.51"/><path d="M1303,399L1205,512L1305,515Z" fill="#f55c41" stroke="#f55c41" stroke-width="1.51"/><path d="M1253,8L1256,152L1321,86Z" fill="#fb876c" stroke="#fb876c" stroke-width="1.51"/><path d="M1253,8L1176,119L1256,152Z" fill="#fc896d" stroke="#fc896d" stroke-width="1.51"/><path d="M1205,512L1296,569L1305,515Z" fill="#f4553b" stroke="#f4553b" stroke-width="1.51"/><path d="M1158,318L1205,512L1303,399Z" fill="#f7664a" stroke="#f7664a" stroke-width="1.51"/><path d="M1219,1129L1212,1191L1301,1165Z" fill="#c32620" stroke="#c32620" stroke-width="1.51"/><path d="M1089,-83L1138,-14L1183,-210Z" fill="#ff9f87" stroke="#ff9f87" stroke-width="1.51"/><path d="M1243,821L1204,830L1261,935Z" fill="#e33328" stroke="#e33328" stroke-width="1.51"/><path d="M1205,512L1189,579L1296,569Z" fill="#f5543b" stroke="#f5543b" stroke-width="1.51"/><path d="M1079,1211L949,1257L1239,1297Z" fill="#b73025" stroke="#b73025" stroke-width="1.51"/><path d="M1182,694L1204,830L1243,821Z" fill="#ec3c2c" stroke="#ec3c2c" stroke-width="1.51"/><path d="M1182,694L1243,821L1272,794Z" fill="#ec3b2b" stroke="#ec3b2b" stroke-width="1.51"/><path d="M1138,-14L1176,119L1253,8Z" fill="#fe9175" stroke="#fe9175" stroke-width="1.51"/><path d="M1204,830L1209,989L1261,935Z" fill="#de2f26" stroke="#de2f26" stroke-width="1.51"/><path d="M1176,119L1177,186L1256,152Z" fill="#fb8567" stroke="#fb8567" stroke-width="1.51"/><path d="M1158,318L1040,428L1205,512Z" fill="#f96b4d" stroke="#f96b4d" stroke-width="1.51"/><path d="M1204,830L1084,832L1209,989Z" fill="#e3382a" stroke="#e3382a" stroke-width="1.51"/><path d="M1212,1191L1079,1211L1239,1297Z" fill="#b82a22" stroke="#b82a22" stroke-width="1.51"/><path d="M1209,989L1050,1140L1219,1129Z" fill="#cf3126" stroke="#cf3126" stroke-width="1.51"/><path d="M1182,694L1084,832L1204,830Z" fill="#ed402f" stroke="#ed402f" stroke-width="1.51"/><path d="M999,1047L1050,1140L1209,989Z" fill="#d4392a" stroke="#d4392a" stroke-width="1.51"/><path d="M1079,1211L1212,1191L1219,1129Z" fill="#c32d23" stroke="#c32d23" stroke-width="1.51"/><path d="M1050,1140L1079,1211L1219,1129Z" fill="#c63326" stroke="#c63326" stroke-width="1.51"/><path d="M1084,-206L1089,-83L1183,-210Z" fill="#ffa48c" stroke="#ffa48c" stroke-width="1.51"/><path d="M1040,428L1066,549L1205,512Z" fill="#f96547" stroke="#f96547" stroke-width="1.51"/><path d="M1084,832L999,1047L1209,989Z" fill="#de3b2c" stroke="#de3b2c" stroke-width="1.51"/><path d="M1066,549L1182,694L1189,579Z" fill="#f6553b" stroke="#f6553b" stroke-width="1.51"/><path d="M1066,549L1189,579L1205,512Z" fill="#f75c3f" stroke="#f75c3f" stroke-width="1.51"/><path d="M1138,-14L1034,38L1176,119Z" fill="#ff9478" stroke="#ff9478" stroke-width="1.51"/><path d="M1051,213L1158,318L1177,186Z" fill="#fb8061" stroke="#fb8061" stroke-width="1.51"/><path d="M1176,119L1051,213L1177,186Z" fill="#fb8768" stroke="#fb8768" stroke-width="1.51"/><path d="M989,797L1084,832L1182,694Z" fill="#ef4833" stroke="#ef4833" stroke-width="1.51"/><path d="M1066,549L989,797L1182,694Z" fill="#f55239" stroke="#f55239" stroke-width="1.51"/><path d="M1034,38L1051,213L1176,119Z" fill="#fd8f71" stroke="#fd8f71" stroke-width="1.51"/><path d="M1051,213L992,332L1158,318Z" fill="#fb7e5f" stroke="#fb7e5f" stroke-width="1.51"/><path d="M992,332L1040,428L1158,318Z" fill="#fa7657" stroke="#fa7657" stroke-width="1.51"/><path d="M155,-216L498,-141L753,-203Z" fill="#ffcebc" stroke="#ffcebc" stroke-width="1.51"/><path d="M886,680L989,797L1066,549Z" fill="#f75a3e" stroke="#f75a3e" stroke-width="1.51"/><path d="M753,-203L871,-139L1084,-206Z" fill="#ffb29a" stroke="#ffb29a" stroke-width="1.51"/><path d="M940,859L999,1047L1084,832Z" fill="#e44431" stroke="#e44431" stroke-width="1.51"/><path d="M1089,-83L1034,38L1138,-14Z" fill="#ff9d82" stroke="#ff9d82" stroke-width="1.51"/><path d="M1034,38L949,132L1051,213Z" fill="#fe9375" stroke="#fe9375" stroke-width="1.51"/><path d="M884,608L886,680L1066,549Z" fill="#f96345" stroke="#f96345" stroke-width="1.51"/><path d="M989,797L940,859L1084,832Z" fill="#eb4b35" stroke="#eb4b35" stroke-width="1.51"/><path d="M872,-85L1034,38L1089,-83Z" fill="#ffa58a" stroke="#ffa58a" stroke-width="1.51"/><path d="M1084,-206L871,-139L1089,-83Z" fill="#ffa990" stroke="#ffa990" stroke-width="1.51"/><path d="M871,-139L872,-85L1089,-83Z" fill="#ffab91" stroke="#ffab91" stroke-width="1.51"/><path d="M1050,1140L949,1257L1079,1211Z" fill="#c13929" stroke="#c13929" stroke-width="1.51"/><path d="M940,859L875,964L999,1047Z" fill="#e14834" stroke="#e14834" stroke-width="1.51"/><path d="M832,502L884,608L1040,428Z" fill="#fb7050" stroke="#fb7050" stroke-width="1.51"/><path d="M1040,428L884,608L1066,549Z" fill="#fb6949" stroke="#fb6949" stroke-width="1.51"/><path d="M498,-141L629,-157L753,-203Z" fill="#ffc3ad" stroke="#ffc3ad" stroke-width="1.51"/><path d="M999,1047L953,1079L1050,1140Z" fill="#d23f2d" stroke="#d23f2d" stroke-width="1.51"/><path d="M953,1079L949,1257L1050,1140Z" fill="#c93e2d" stroke="#c93e2d" stroke-width="1.51"/><path d="M873,292L992,332L1051,213Z" fill="#fd8565" stroke="#fd8565" stroke-width="1.51"/><path d="M949,132L873,292L1051,213Z" fill="#fe8d6d" stroke="#fe8d6d" stroke-width="1.51"/><path d="M992,332L832,502L1040,428Z" fill="#fc7756" stroke="#fc7756" stroke-width="1.51"/><path d="M872,-85L949,132L1034,38Z" fill="#ffa084" stroke="#ffa084" stroke-width="1.51"/><path d="M839,264L873,292L949,132Z" fill="#fe9171" stroke="#fe9171" stroke-width="1.51"/><path d="M873,292L832,502L992,332Z" fill="#fc805f" stroke="#fc805f" stroke-width="1.51"/><path d="M875,964L953,1079L999,1047Z" fill="#d94632" stroke="#d94632" stroke-width="1.51"/><path d="M827,1262L949,1257L953,1079Z" fill="#c34230" stroke="#c34230" stroke-width="1.51"/><path d="M872,-85L763,108L949,132Z" fill="#ffa487" stroke="#ffa487" stroke-width="1.51"/><path d="M886,680L940,859L989,797Z" fill="#f1533b" stroke="#f1533b" stroke-width="1.51"/><path d="M733,7L763,108L872,-85Z" fill="#ffad91" stroke="#ffad91" stroke-width="1.51"/><path d="M754,685L753,901L886,680Z" fill="#f46045" stroke="#f46045" stroke-width="1.51"/><path d="M886,680L753,901L940,859Z" fill="#ef573f" stroke="#ef573f" stroke-width="1.51"/><path d="M763,108L839,264L949,132Z" fill="#fe997b" stroke="#fe997b" stroke-width="1.51"/><path d="M875,964L707,1047L953,1079Z" fill="#da4d38" stroke="#da4d38" stroke-width="1.51"/><path d="M707,1047L740,1170L953,1079Z" fill="#d3503a" stroke="#d3503a" stroke-width="1.51"/><path d="M740,1170L827,1262L953,1079Z" fill="#c94935" stroke="#c94935" stroke-width="1.51"/><path d="M753,901L875,964L940,859Z" fill="#e6513b" stroke="#e6513b" stroke-width="1.51"/><path d="M755,304L701,457L832,502Z" fill="#fc8563" stroke="#fc8563" stroke-width="1.51"/><path d="M763,108L716,178L839,264Z" fill="#fd9c7e" stroke="#fd9c7e" stroke-width="1.51"/><path d="M755,304L832,502L873,292Z" fill="#fc8665" stroke="#fc8665" stroke-width="1.51"/><path d="M832,502L829,649L884,608Z" fill="#fa6d4e" stroke="#fa6d4e" stroke-width="1.51"/><path d="M829,649L754,685L886,680Z" fill="#f86649" stroke="#f86649" stroke-width="1.51"/><path d="M884,608L829,649L886,680Z" fill="#f96648" stroke="#f96648" stroke-width="1.51"/><path d="M155,-216L348,-139L498,-141Z" fill="#ffd6c6" stroke="#ffd6c6" stroke-width="1.51"/><path d="M871,-139L753,-203L872,-85Z" fill="#ffb49c" stroke="#ffb49c" stroke-width="1.51"/><path d="M839,264L755,304L873,292Z" fill="#fd8e6e" stroke="#fd8e6e" stroke-width="1.51"/><path d="M753,901L707,1047L875,964Z" fill="#e0553e" stroke="#e0553e" stroke-width="1.51"/><path d="M753,-203L733,7L872,-85Z" fill="#ffb49c" stroke="#ffb49c" stroke-width="1.51"/><path d="M151,1209L42,1202L401,1285Z" fill="#c47261" stroke="#c47261" stroke-width="1.51"/><path d="M42,1202L-205,1240L401,1285Z" fill="#c4796a" stroke="#c4796a" stroke-width="1.51"/><path d="M644,561L754,685L829,649Z" fill="#fa7052" stroke="#fa7052" stroke-width="1.51"/><path d="M644,561L829,649L832,502Z" fill="#fb7554" stroke="#fb7554" stroke-width="1.51"/><path d="M701,457L644,561L832,502Z" fill="#fc7e5d" stroke="#fc7e5d" stroke-width="1.51"/><path d="M716,178L755,304L839,264Z" fill="#fd9676" stroke="#fd9676" stroke-width="1.51"/><path d="M694,3L733,7L753,-203Z" fill="#ffb79e" stroke="#ffb79e" stroke-width="1.51"/><path d="M629,-157L694,3L753,-203Z" fill="#ffbca5" stroke="#ffbca5" stroke-width="1.51"/><path d="M740,1170L677,1273L827,1262Z" fill="#be4c3a" stroke="#be4c3a" stroke-width="1.51"/><path d="M630,897L684,1049L707,1047Z" fill="#df5c44" stroke="#df5c44" stroke-width="1.51"/><path d="M694,3L690,125L733,7Z" fill="#ffae93" stroke="#ffae93" stroke-width="1.51"/><path d="M707,1047L669,1110L740,1170Z" fill="#d35640" stroke="#d35640" stroke-width="1.51"/><path d="M630,897L707,1047L753,901Z" fill="#e35c44" stroke="#e35c44" stroke-width="1.51"/><path d="M644,561L598,687L754,685Z" fill="#fa7456" stroke="#fa7456" stroke-width="1.51"/><path d="M630,897L753,901L754,685Z" fill="#ee6248" stroke="#ee6248" stroke-width="1.51"/><path d="M598,687L630,897L754,685Z" fill="#f56a4e" stroke="#f56a4e" stroke-width="1.51"/><path d="M629,382L701,457L755,304Z" fill="#fc8d6c" stroke="#fc8d6c" stroke-width="1.51"/><path d="M716,178L615,253L755,304Z" fill="#fd9b7c" stroke="#fd9b7c" stroke-width="1.51"/><path d="M733,7L690,125L763,108Z" fill="#fea98d" stroke="#fea98d" stroke-width="1.51"/><path d="M690,125L716,178L763,108Z" fill="#fda487" stroke="#fda487" stroke-width="1.51"/><path d="M615,253L629,382L755,304Z" fill="#fc9676" stroke="#fc9676" stroke-width="1.51"/><path d="M669,1110L677,1273L740,1170Z" fill="#c7533e" stroke="#c7533e" stroke-width="1.51"/><path d="M684,1049L669,1110L707,1047Z" fill="#d75941" stroke="#d75941" stroke-width="1.51"/><path d="M669,1110L568,1143L677,1273Z" fill="#c95742" stroke="#c95742" stroke-width="1.51"/><path d="M629,-157L556,-35L694,3Z" fill="#ffbda6" stroke="#ffbda6" stroke-width="1.51"/><path d="M596,523L644,561L701,457Z" fill="#fc8362" stroke="#fc8362" stroke-width="1.51"/><path d="M690,125L615,253L716,178Z" fill="#fda384" stroke="#fda384" stroke-width="1.51"/><path d="M556,-35L690,125L694,3Z" fill="#ffb499" stroke="#ffb499" stroke-width="1.51"/><path d="M630,897L532,932L684,1049Z" fill="#e36149" stroke="#e36149" stroke-width="1.51"/><path d="M556,-35L494,133L690,125Z" fill="#feb49a" stroke="#feb49a" stroke-width="1.51"/><path d="M629,382L596,523L701,457Z" fill="#fc8969" stroke="#fc8969" stroke-width="1.51"/><path d="M598,687L478,812L630,897Z" fill="#f36f53" stroke="#f36f53" stroke-width="1.51"/><path d="M494,133L615,253L690,125Z" fill="#fdaa8c" stroke="#fdaa8c" stroke-width="1.51"/><path d="M480,1194L401,1285L677,1273Z" fill="#bd5c49" stroke="#bd5c49" stroke-width="1.51"/><path d="M568,1143L669,1110L684,1049Z" fill="#d45b44" stroke="#d45b44" stroke-width="1.51"/><path d="M532,932L568,1143L684,1049Z" fill="#db6049" stroke="#db6049" stroke-width="1.51"/><path d="M494,133L490,178L615,253Z" fill="#fdac8f" stroke="#fdac8f" stroke-width="1.51"/><path d="M568,1143L480,1194L677,1273Z" fill="#c55a46" stroke="#c55a46" stroke-width="1.51"/><path d="M497,357L462,478L596,523Z" fill="#fd9273" stroke="#fd9273" stroke-width="1.51"/><path d="M615,253L497,357L629,382Z" fill="#fd9a7a" stroke="#fd9a7a" stroke-width="1.51"/><path d="M497,357L596,523L629,382Z" fill="#fd9171" stroke="#fd9171" stroke-width="1.51"/><path d="M498,-141L556,-35L629,-157Z" fill="#ffc4af" stroke="#ffc4af" stroke-width="1.51"/><path d="M478,812L532,932L630,897Z" fill="#eb6b51" stroke="#eb6b51" stroke-width="1.51"/><path d="M596,523L598,687L644,561Z" fill="#fb7e5e" stroke="#fb7e5e" stroke-width="1.51"/><path d="M596,523L459,651L598,687Z" fill="#fb8060" stroke="#fb8060" stroke-width="1.51"/><path d="M532,932L429,947L568,1143Z" fill="#df6850" stroke="#df6850" stroke-width="1.51"/><path d="M447,752L478,812L598,687Z" fill="#f8775a" stroke="#f8775a" stroke-width="1.51"/><path d="M490,178L497,357L615,253Z" fill="#fda586" stroke="#fda586" stroke-width="1.51"/><path d="M462,478L459,651L596,523Z" fill="#fd8a6a" stroke="#fd8a6a" stroke-width="1.51"/><path d="M459,651L447,752L598,687Z" fill="#fa7c5e" stroke="#fa7c5e" stroke-width="1.51"/><path d="M435,729L447,752L459,651Z" fill="#fa7f61" stroke="#fa7f61" stroke-width="1.51"/><path d="M490,178L397,278L497,357Z" fill="#fda98b" stroke="#fda98b" stroke-width="1.51"/><path d="M369,-35L494,133L556,-35Z" fill="#fec0a9" stroke="#fec0a9" stroke-width="1.51"/><path d="M429,947L480,1194L568,1143Z" fill="#d7674f" stroke="#d7674f" stroke-width="1.51"/><path d="M429,947L335,1152L480,1194Z" fill="#d76c55" stroke="#d76c55" stroke-width="1.51"/><path d="M369,-35L344,52L494,133Z" fill="#fdc3ab" stroke="#fdc3ab" stroke-width="1.51"/><path d="M498,-141L369,-35L556,-35Z" fill="#ffc8b3" stroke="#ffc8b3" stroke-width="1.51"/><path d="M478,812L429,947L532,932Z" fill="#eb7056" stroke="#eb7056" stroke-width="1.51"/><path d="M323,602L459,651L462,478Z" fill="#fd8e6f" stroke="#fd8e6f" stroke-width="1.51"/><path d="M379,403L462,478L497,357Z" fill="#fd9b7c" stroke="#fd9b7c" stroke-width="1.51"/><path d="M348,-139L369,-35L498,-141Z" fill="#ffcebb" stroke="#ffcebb" stroke-width="1.51"/><path d="M397,278L379,403L497,357Z" fill="#fda385" stroke="#fda385" stroke-width="1.51"/><path d="M344,52L490,178L494,133Z" fill="#fdb99f" stroke="#fdb99f" stroke-width="1.51"/><path d="M362,460L323,602L462,478Z" fill="#fe9677" stroke="#fe9677" stroke-width="1.51"/><path d="M344,52L397,278L490,178Z" fill="#fcb79b" stroke="#fcb79b" stroke-width="1.51"/><path d="M344,52L254,202L397,278Z" fill="#fdbba1" stroke="#fdbba1" stroke-width="1.51"/><path d="M315,918L429,947L478,812Z" fill="#ec755c" stroke="#ec755c" stroke-width="1.51"/><path d="M335,1152L401,1285L480,1194Z" fill="#c56753" stroke="#c56753" stroke-width="1.51"/><path d="M447,752L315,918L478,812Z" fill="#f1795e" stroke="#f1795e" stroke-width="1.51"/><path d="M315,918L335,1152L429,947Z" fill="#e1735c" stroke="#e1735c" stroke-width="1.51"/><path d="M379,403L362,460L462,478Z" fill="#fd9b7d" stroke="#fd9b7d" stroke-width="1.51"/><path d="M323,602L435,729L459,651Z" fill="#fc8768" stroke="#fc8768" stroke-width="1.51"/><path d="M194,755L315,918L435,729Z" fill="#f68267" stroke="#f68267" stroke-width="1.51"/><path d="M435,729L315,918L447,752Z" fill="#f47c60" stroke="#f47c60" stroke-width="1.51"/><path d="M315,918L254,1127L335,1152Z" fill="#dc755e" stroke="#dc755e" stroke-width="1.51"/><path d="M335,1152L297,1199L401,1285Z" fill="#c66b57" stroke="#c66b57" stroke-width="1.51"/><path d="M323,602L194,755L435,729Z" fill="#fc896d" stroke="#fc896d" stroke-width="1.51"/><path d="M155,-216L260,-128L348,-139Z" fill="#ffdbcc" stroke="#ffdbcc" stroke-width="1.51"/><path d="M208,988L254,1127L315,918Z" fill="#e27a63" stroke="#e27a63" stroke-width="1.51"/><path d="M252,358L379,403L397,278Z" fill="#fda98c" stroke="#fda98c" stroke-width="1.51"/><path d="M297,1199L151,1209L401,1285Z" fill="#c36d5b" stroke="#c36d5b" stroke-width="1.51"/><path d="M254,202L252,358L397,278Z" fill="#feb297" stroke="#feb297" stroke-width="1.51"/><path d="M194,755L210,894L315,918Z" fill="#f2836a" stroke="#f2836a" stroke-width="1.51"/><path d="M276,34L344,52L369,-35Z" fill="#fecab5" stroke="#fecab5" stroke-width="1.51"/><path d="M348,-139L269,-32L369,-35Z" fill="#fed2bf" stroke="#fed2bf" stroke-width="1.51"/><path d="M252,358L362,460L379,403Z" fill="#fea486" stroke="#fea486" stroke-width="1.51"/><path d="M190,637L194,755L323,602Z" fill="#ff9276" stroke="#ff9276" stroke-width="1.51"/><path d="M276,34L254,202L344,52Z" fill="#fdc6ae" stroke="#fdc6ae" stroke-width="1.51"/><path d="M260,-128L269,-32L348,-139Z" fill="#fed5c4" stroke="#fed5c4" stroke-width="1.51"/><path d="M214,427L323,602L362,460Z" fill="#ff9d7f" stroke="#ff9d7f" stroke-width="1.51"/><path d="M252,358L214,427L362,460Z" fill="#ffa78a" stroke="#ffa78a" stroke-width="1.51"/><path d="M269,-32L276,34L369,-35Z" fill="#fecfbb" stroke="#fecfbb" stroke-width="1.51"/><path d="M214,427L190,637L323,602Z" fill="#ff9c7e" stroke="#ff9c7e" stroke-width="1.51"/><path d="M254,1127L297,1199L335,1152Z" fill="#d0715c" stroke="#d0715c" stroke-width="1.51"/><path d="M190,637L173,728L194,755Z" fill="#fe9176" stroke="#fe9176" stroke-width="1.51"/><path d="M135,115L254,202L276,34Z" fill="#fec7b1" stroke="#fec7b1" stroke-width="1.51"/><path d="M210,894L208,988L315,918Z" fill="#eb7e66" stroke="#eb7e66" stroke-width="1.51"/><path d="M149,435L190,637L214,427Z" fill="#ffa488" stroke="#ffa488" stroke-width="1.51"/><path d="M254,1127L172,1152L297,1199Z" fill="#d17560" stroke="#d17560" stroke-width="1.51"/><path d="M172,1152L151,1209L297,1199Z" fill="#cd7562" stroke="#cd7562" stroke-width="1.51"/><path d="M125,186L252,358L254,202Z" fill="#febba2" stroke="#febba2" stroke-width="1.51"/><path d="M260,-128L69,-72L269,-32Z" fill="#fedaca" stroke="#fedaca" stroke-width="1.51"/><path d="M269,-32L135,115L276,34Z" fill="#fecfbb" stroke="#fecfbb" stroke-width="1.51"/><path d="M125,186L133,408L252,358Z" fill="#ffb79d" stroke="#ffb79d" stroke-width="1.51"/><path d="M208,988L172,1152L254,1127Z" fill="#db7a64" stroke="#db7a64" stroke-width="1.51"/><path d="M69,-72L135,115L269,-32Z" fill="#fed7c5" stroke="#fed7c5" stroke-width="1.51"/><path d="M149,435L61,578L190,637Z" fill="#ffa387" stroke="#ffa387" stroke-width="1.51"/><path d="M135,115L125,186L254,202Z" fill="#fdc6b0" stroke="#fdc6b0" stroke-width="1.51"/><path d="M155,-216L69,-72L260,-128Z" fill="#ffe0d2" stroke="#ffe0d2" stroke-width="1.51"/><path d="M133,408L214,427L252,358Z" fill="#ffad92" stroke="#ffad92" stroke-width="1.51"/><path d="M45,502L61,578L149,435Z" fill="#ffab90" stroke="#ffab90" stroke-width="1.51"/><path d="M149,962L5,1084L172,1152Z" fill="#df826d" stroke="#df826d" stroke-width="1.51"/><path d="M149,962L172,1152L208,988Z" fill="#e27e69" stroke="#e27e69" stroke-width="1.51"/><path d="M194,755L95,827L210,894Z" fill="#f68971" stroke="#f68971" stroke-width="1.51"/><path d="M149,962L208,988L210,894Z" fill="#ea816a" stroke="#ea816a" stroke-width="1.51"/><path d="M133,408L149,435L214,427Z" fill="#ffad92" stroke="#ffad92" stroke-width="1.51"/><path d="M95,827L149,962L210,894Z" fill="#f0866f" stroke="#f0866f" stroke-width="1.51"/><path d="M61,578L173,728L190,637Z" fill="#ff9a7e" stroke="#ff9a7e" stroke-width="1.51"/><path d="M173,728L95,827L194,755Z" fill="#fb8e75" stroke="#fb8e75" stroke-width="1.51"/><path d="M125,186L-65,287L133,408Z" fill="#ffbfa8" stroke="#ffbfa8" stroke-width="1.51"/><path d="M69,-72L-8,-11L135,115Z" fill="#fedbcc" stroke="#fedbcc" stroke-width="1.51"/><path d="M47,-239L69,-72L155,-216Z" fill="#ffe6db" stroke="#ffe6db" stroke-width="1.51"/><path d="M5,1084L42,1202L172,1152Z" fill="#d6806d" stroke="#d6806d" stroke-width="1.51"/><path d="M-18,773L95,827L173,728Z" fill="#fc927a" stroke="#fc927a" stroke-width="1.51"/><path d="M61,578L-18,773L173,728Z" fill="#ff9a80" stroke="#ff9a80" stroke-width="1.51"/><path d="M42,1202L151,1209L172,1152Z" fill="#cd7a69" stroke="#cd7a69" stroke-width="1.51"/><path d="M-8,-11L45,134L135,115Z" fill="#fed5c4" stroke="#fed5c4" stroke-width="1.51"/><path d="M-29,1017L5,1084L149,962Z" fill="#e58672" stroke="#e58672" stroke-width="1.51"/><path d="M95,827L-47,910L149,962Z" fill="#f18b75" stroke="#f18b75" stroke-width="1.51"/><path d="M133,408L45,502L149,435Z" fill="#ffae94" stroke="#ffae94" stroke-width="1.51"/><path d="M-47,910L-29,1017L149,962Z" fill="#eb8975" stroke="#eb8975" stroke-width="1.51"/><path d="M45,134L-48,184L125,186Z" fill="#fecdb9" stroke="#fecdb9" stroke-width="1.51"/><path d="M-48,184L-65,287L125,186Z" fill="#ffcab4" stroke="#ffcab4" stroke-width="1.51"/><path d="M-65,287L45,502L133,408Z" fill="#ffb69e" stroke="#ffb69e" stroke-width="1.51"/><path d="M45,134L125,186L135,115Z" fill="#fecdb8" stroke="#fecdb8" stroke-width="1.51"/><path d="M10,558L-18,773L61,578Z" fill="#ffa187" stroke="#ffa187" stroke-width="1.51"/><path d="M-18,773L-47,910L95,827Z" fill="#f7917a" stroke="#f7917a" stroke-width="1.51"/><path d="M-133,600L-18,773L10,558Z" fill="#ffa28a" stroke="#ffa28a" stroke-width="1.51"/><path d="M45,502L10,558L61,578Z" fill="#ffa88e" stroke="#ffa88e" stroke-width="1.51"/><path d="M47,-239L-150,-162L69,-72Z" fill="#ffe9df" stroke="#ffe9df" stroke-width="1.51"/><path d="M-150,-162L-8,-11L69,-72Z" fill="#ffe6da" stroke="#ffe6da" stroke-width="1.51"/><path d="M-8,-11L-115,74L45,134Z" fill="#ffd9c9" stroke="#ffd9c9" stroke-width="1.51"/><path d="M-65,287L-193,493L45,502Z" fill="#ffb7a0" stroke="#ffb7a0" stroke-width="1.51"/><path d="M-115,74L-48,184L45,134Z" fill="#fed4c2" stroke="#fed4c2" stroke-width="1.51"/><path d="M-193,493L10,558L45,502Z" fill="#ffae95" stroke="#ffae95" stroke-width="1.51"/><path d="M5,1084L-135,1069L42,1202Z" fill="#db8573" stroke="#db8573" stroke-width="1.51"/><path d="M-135,1069L-205,1240L42,1202Z" fill="#d38475" stroke="#d38475" stroke-width="1.51"/><path d="M-123,879L-47,910L-18,773Z" fill="#f7927d" stroke="#f7927d" stroke-width="1.51"/><path d="M-150,-162L-174,-81L-8,-11Z" fill="#ffe9df" stroke="#ffe9df" stroke-width="1.51"/><path d="M-193,493L-133,600L10,558Z" fill="#ffad94" stroke="#ffad94" stroke-width="1.51"/><path d="M-29,1017L-135,1069L5,1084Z" fill="#e28876" stroke="#e28876" stroke-width="1.51"/><path d="M-184,289L-193,493L-65,287Z" fill="#ffc0ac" stroke="#ffc0ac" stroke-width="1.51"/><path d="M-133,600L-207,791L-18,773Z" fill="#ff9d87" stroke="#ff9d87" stroke-width="1.51"/><path d="M-174,-81L-115,74L-8,-11Z" fill="#ffe3d6" stroke="#ffe3d6" stroke-width="1.51"/><path d="M-47,910L-156,966L-29,1017Z" fill="#ec8c79" stroke="#ec8c79" stroke-width="1.51"/><path d="M-207,791L-123,879L-18,773Z" fill="#fb9782" stroke="#fb9782" stroke-width="1.51"/><path d="M-156,966L-135,1069L-29,1017Z" fill="#e78c79" stroke="#e78c79" stroke-width="1.51"/><path d="M-159,201L-65,287L-48,184Z" fill="#ffccb9" stroke="#ffccb9" stroke-width="1.51"/><path d="M-115,74L-159,201L-48,184Z" fill="#ffd4c2" stroke="#ffd4c2" stroke-width="1.51"/><path d="M-123,879L-156,966L-47,910Z" fill="#f1907d" stroke="#f1907d" stroke-width="1.51"/><path d="M-159,201L-184,289L-65,287Z" fill="#ffcab6" stroke="#ffcab6" stroke-width="1.51"/><path d="M-174,-81L-159,201L-115,74Z" fill="#ffded0" stroke="#ffded0" stroke-width="1.51"/><path d="M-207,791L-156,966L-123,879Z" fill="#f59581" stroke="#f59581" stroke-width="1.51"/><path d="M-193,493L-207,791L-133,600Z" fill="#ffa991" stroke="#ffa991" stroke-width="1.51"/><path d="M-156,966L-205,1240L-135,1069Z" fill="#e08b7a" stroke="#e08b7a" stroke-width="1.51"/><path d="M-174,-81L-184,289L-159,201Z" fill="#ffd8c8" stroke="#ffd8c8" stroke-width="1.51"/><path d="M-207,791L-205,1240L-156,966Z" fill="#ea907e" stroke="#ea907e" stroke-width="1.51"/><path d="M-193,493L-184,289L-174,-81Z" fill="#ffcebc" stroke="#ffcebc" stroke-width="1.51"/></svg>